<svg xmlns="http://www.w3.org/2000/svg" width="669" height="445" viewBox="0 0 669 445" role="img" aria-labelledby="title desc">
  <title id="title">Aleatoric and epistemic uncertainty</title>
  <desc id="desc">A noisy sine-like regression example. Aleatoric uncertainty is shown as vertical spread around observed data, while epistemic uncertainty is shown in an extrapolation region without data.</desc>
  <rect width="669" height="445" fill="#e8edf5"/>
  <g stroke="#ffffff" stroke-width="1.4" opacity="0.9">
    <line x1="38" y1="423" x2="708" y2="423"/>
    <line x1="38" y1="354" x2="708" y2="354"/>
    <line x1="38" y1="285" x2="708" y2="285"/>
    <line x1="38" y1="216" x2="708" y2="216"/>
    <line x1="38" y1="147" x2="708" y2="147"/>
    <line x1="38" y1="78" x2="708" y2="78"/>
    <line x1="38" y1="9" x2="708" y2="9"/>
    <line x1="38" y1="9" x2="38" y2="423"/>
    <line x1="141" y1="9" x2="141" y2="423"/>
    <line x1="244" y1="9" x2="244" y2="423"/>
    <line x1="347" y1="9" x2="347" y2="423"/>
    <line x1="450" y1="9" x2="450" y2="423"/>
    <line x1="553" y1="9" x2="553" y2="423"/>
    <line x1="656" y1="9" x2="656" y2="423"/>
  </g>
  <g fill="#24415f" font-family="serif" font-size="18">
    <text x="0" y="429">-15</text>
    <text x="10" y="360">-10</text>
    <text x="20" y="291">-5</text>
    <text x="27" y="222">0</text>
    <text x="27" y="153">5</text>
    <text x="18" y="84">10</text>
    <text x="18" y="15">15</text>
    <text x="33" y="455">0</text>
    <text x="135" y="455">2</text>
    <text x="238" y="455">4</text>
    <text x="341" y="455">6</text>
    <text x="444" y="455">8</text>
    <text x="544" y="455">10</text>
    <text x="647" y="455">12</text>
  </g>
  <path d="M38 216
           C75 142 100 77 124 79
           C151 81 172 174 193 228
           C217 293 249 352 285 354
           C319 356 340 300 363 239
           C395 154 422 87 454 81
           C487 75 512 144 540 224
           C568 305 590 374 620 352
           C647 332 672 233 708 174"
        fill="none" stroke="#373083" stroke-width="2.2"/>
  <g fill="#8c0000" stroke="#8c0000" stroke-width="1">
    <circle cx="192" cy="157" r="3"/><circle cx="198" cy="172" r="3"/><circle cx="188" cy="190" r="3"/><circle cx="205" cy="205" r="3"/>
    <circle cx="197" cy="222" r="3"/><circle cx="211" cy="238" r="3"/><circle cx="204" cy="250" r="3"/><circle cx="217" cy="264" r="3"/>
    <circle cx="227" cy="246" r="3"/><circle cx="234" cy="272" r="3"/><circle cx="243" cy="287" r="3"/><circle cx="238" cy="312" r="3"/>
    <circle cx="252" cy="300" r="3"/><circle cx="263" cy="325" r="3"/><circle cx="276" cy="339" r="3"/><circle cx="288" cy="350" r="3"/>
    <circle cx="295" cy="331" r="3"/><circle cx="307" cy="314" r="3"/><circle cx="318" cy="294" r="3"/><circle cx="331" cy="276" r="3"/>
    <circle cx="347" cy="257" r="3"/><circle cx="360" cy="240" r="3"/><circle cx="374" cy="207" r="3"/><circle cx="387" cy="173" r="3"/>
    <circle cx="398" cy="130" r="3"/><circle cx="411" cy="108" r="3"/><circle cx="426" cy="83" r="3"/><circle cx="440" cy="32" r="3"/>
    <circle cx="455" cy="31" r="3"/><circle cx="468" cy="72" r="3"/><circle cx="482" cy="92" r="3"/><circle cx="497" cy="126" r="3"/>
    <circle cx="511" cy="166" r="3"/><circle cx="523" cy="199" r="3"/><circle cx="532" cy="232" r="3"/><circle cx="540" cy="266" r="3"/>
    <circle cx="191" cy="184" r="3"/><circle cx="202" cy="194" r="3"/><circle cx="214" cy="218" r="3"/><circle cx="224" cy="239" r="3"/>
    <circle cx="236" cy="258" r="3"/><circle cx="247" cy="286" r="3"/><circle cx="259" cy="317" r="3"/><circle cx="271" cy="355" r="3"/>
    <circle cx="281" cy="374" r="3"/><circle cx="292" cy="391" r="3"/><circle cx="300" cy="365" r="3"/><circle cx="313" cy="339" r="3"/>
    <circle cx="326" cy="311" r="3"/><circle cx="339" cy="287" r="3"/><circle cx="352" cy="262" r="3"/><circle cx="365" cy="239" r="3"/>
    <circle cx="379" cy="218" r="3"/><circle cx="392" cy="184" r="3"/><circle cx="404" cy="147" r="3"/><circle cx="417" cy="124" r="3"/>
    <circle cx="430" cy="109" r="3"/><circle cx="442" cy="94" r="3"/><circle cx="455" cy="103" r="3"/><circle cx="469" cy="111" r="3"/>
    <circle cx="483" cy="140" r="3"/><circle cx="496" cy="160" r="3"/><circle cx="509" cy="189" r="3"/><circle cx="522" cy="214" r="3"/>
    <circle cx="535" cy="250" r="3"/><circle cx="548" cy="286" r="3"/>
    <circle cx="203" cy="240" r="3"/><circle cx="218" cy="282" r="3"/><circle cx="232" cy="323" r="3"/><circle cx="247" cy="340" r="3"/>
    <circle cx="263" cy="369" r="3"/><circle cx="280" cy="397" r="3"/><circle cx="293" cy="372" r="3"/><circle cx="309" cy="352" r="3"/>
    <circle cx="327" cy="316" r="3"/><circle cx="345" cy="279" r="3"/><circle cx="364" cy="241" r="3"/><circle cx="382" cy="204" r="3"/>
    <circle cx="402" cy="164" r="3"/><circle cx="421" cy="142" r="3"/><circle cx="438" cy="128" r="3"/><circle cx="456" cy="120" r="3"/>
    <circle cx="474" cy="132" r="3"/><circle cx="493" cy="166" r="3"/><circle cx="511" cy="210" r="3"/><circle cx="528" cy="252" r="3"/>
    <circle cx="544" cy="310" r="3"/>
  </g>
  <g stroke="#ff120c" stroke-width="7" fill="none">
    <line x1="184" y1="213" x2="184" y2="370"/>
    <path d="M184 213 L174 231 L194 231 Z" fill="#ff120c" stroke="none"/>
    <path d="M184 370 L174 352 L194 352 Z" fill="#ff120c" stroke="none"/>
  </g>
  <text x="58" y="294" fill="#ff120c" font-family="serif" font-weight="700" font-size="31">Aleatoric</text>
  <g stroke="#f28c32" stroke-width="6" fill="none">
    <line x1="559" y1="365" x2="704" y2="365"/>
    <path d="M559 365 L577 355 L577 375 Z" fill="#f28c32" stroke="none"/>
    <path d="M704 365 L686 355 L686 375 Z" fill="#f28c32" stroke="none"/>
  </g>
  <text x="572" y="405" fill="#f28c32" font-family="serif" font-weight="700" font-size="31">Epistemic</text>
</svg>
